<svg xmlns="http://www.w3.org/2000/svg" xmlns:xlink="http://www.w3.org/1999/xlink" width="880" height="694.72"><rect width="880" height="694.72" rx="0" ry="0" class="a"/><svg height="694.72" viewBox="0 0 88 69.472" width="880" xmlns="http://www.w3.org/2000/svg" xmlns:xlink="http://www.w3.org/1999/xlink"><style>@keyframes m{0%{transform:translateX(0)}.02%{transform:translateX(-88px)}2.55%{transform:translateX(-176px)}2.56%{transform:translateX(-264px)}2.72%{transform:translateX(-352px)}2.89%{transform:translateX(-440px)}3.05%{transform:translateX(-528px)}3.21%{transform:translateX(-616px)}3.38%{transform:translateX(-704px)}3.54%{transform:translateX(-792px)}3.7%{transform:translateX(-880px)}3.86%{transform:translateX(-968px)}4.03%{transform:translateX(-1056px)}4.19%{transform:translateX(-1144px)}4.35%{transform:translateX(-1232px)}4.52%{transform:translateX(-1320px)}4.68%{transform:translateX(-1408px)}4.84%{transform:translateX(-1496px)}5.01%{transform:translateX(-1584px)}5.17%{transform:translateX(-1672px)}5.33%{transform:translateX(-1760px)}5.5%{transform:translateX(-1848px)}5.66%{transform:translateX(-1936px)}5.82%{transform:translateX(-2024px)}5.99%{transform:translateX(-2112px)}6.15%{transform:translateX(-2200px)}6.31%{transform:translateX(-2288px)}6.48%{transform:translateX(-2376px)}6.64%{transform:translateX(-2464px)}6.8%{transform:translateX(-2552px)}6.96%{transform:translateX(-2640px)}7.13%{transform:translateX(-2728px)}7.29%{transform:translateX(-2816px)}7.45%{transform:translateX(-2904px)}7.61%{transform:translateX(-2992px)}7.78%{transform:translateX(-3080px)}7.94%{transform:translateX(-3168px)}8.1%{transform:translateX(-3256px)}8.26%{transform:translateX(-3344px)}8.42%{transform:translateX(-3432px)}8.58%{transform:translateX(-3520px)}8.75%{transform:translateX(-3608px)}8.91%{transform:translateX(-3696px)}9.07%{transform:translateX(-3784px)}9.24%{transform:translateX(-3872px)}9.4%{transform:translateX(-3960px)}16.98%{transform:translateX(-4048px)}24.56%{transform:translateX(-4136px)}27.09%{transform:translateX(-4224px)}29.13%{transform:translateX(-4312px)}36.71%{transform:translateX(-4400px)}39.75%{transform:translateX(-4488px)}43.9%{transform:translateX(-4576px)}48.32%{transform:translateX(-4664px)}50.9%{transform:translateX(-4752px)}61%{transform:translateX(-4840px)}64.05%{transform:translateX(-4928px)}68.18%{transform:translateX(-5016px)}72.6%{transform:translateX(-5104px)}75.18%{transform:translateX(-5192px)}85.28%{transform:translateX(-5280px)}87.91%{transform:translateX(-5368px)}92.43%{transform:translateX(-5456px)}to{transform:translateX(-5632px)}}.a{fill:#282d35}.c{fill:#66c2cd;white-space:pre}.d,.e{fill:#b9c0cb;white-space:pre}.e,.f,.g{font-weight:700}.f{fill:#dbab79;white-space:pre}.g{fill:#e88388}.g,.h,.i{white-space:pre}.h{fill:#a8cc8c;font-weight:700}.i{fill:#e88388}</style><g font-family="Monaco,Consolas,Menlo,'Bitstream Vera Sans Mono','Powerline Symbols',monospace" font-size="1.67"><defs><symbol id="1"><text x="2.004" y="1.67" class="c">AI-Drift</text></symbol><symbol id="2"><text x="2.004" y="1.67" class="c">AI-Drift</text><text x="11.022" y="1.67" class="c">Firewall</text></symbol><symbol id="3"><text x="2.004" y="1.67" class="c">AI-Drift</text><text x="11.022" y="1.67" class="c">Firewall</text><text x="20.04" y="1.67" class="c">—</text></symbol><symbol id="4"><text x="2.004" y="1.67" class="c">AI-Drift</text><text x="11.022" y="1.67" class="c">Firewall</text><text x="20.04" y="1.67" class="c">—</text><text x="22.044" y="1.67" class="c">Agent-Time</text></symbol><symbol id="5"><text x="2.004" y="1.67" class="c">AI-Drift</text><text x="11.022" y="1.67" class="c">Firewall</text><text x="20.04" y="1.67" class="c">—</text><text x="22.044" y="1.67" class="c">Agent-Time</text><text x="33.066" y="1.67" class="c">Gate</text></symbol><symbol id="6"><text x="2.004" y="1.67" class="c">AI-Drift</text><text x="11.022" y="1.67" class="c">Firewall</text><text x="20.04" y="1.67" class="c">—</text><text x="22.044" y="1.67" class="c">Agent-Time</text><text x="33.066" y="1.67" class="c">Gate</text><text x="38.076" y="1.67" class="c">Demo</text></symbol><symbol id="7"><text x="2.004" y="1.67" class="d">qse-pkg</text><text x="10.02" y="1.67" class="d">·</text><text x="12.024" y="1.67" class="d">PreToolUse</text><text x="23.046" y="1.67" class="d">hook</text><text x="28.056" y="1.67" class="d">·</text><text x="30.06" y="1.67" class="d">Claude</text><text x="37.074" y="1.67" class="d">Code</text></symbol><symbol id="8"><text x="2.004" y="1.67" class="d">Architecture:</text><text x="16.032" y="1.67" class="d">domain</text><text x="23.046" y="1.67" class="d">→</text><text x="25.05" y="1.67" class="d">application</text><text x="37.074" y="1.67" class="d">→</text><text x="39.078" y="1.67" class="d">infrastructure</text></symbol><symbol id="9"><text x="2.004" y="1.67" class="d">Rule:</text><text x="8.016" y="1.67" class="d">domain</text><text x="15.03" y="1.67" class="d">must</text><text x="20.04" y="1.67" class="d">NOT</text><text x="24.048" y="1.67" class="d">import</text><text x="31.062" y="1.67" class="d">infrastructure</text><text x="46.092" y="1.67" class="d">(layer</text><text x="53.106" y="1.67" class="d">violation)</text></symbol><symbol id="10"><text y="1.67" class="e">[1/3]</text><text x="6.012" y="1.67" class="e">Baseline</text><text x="15.03" y="1.67" class="e">—</text><text x="17.034" y="1.67" class="e">clean</text><text x="23.046" y="1.67" class="e">domain/order.py</text></symbol><symbol id="11"><text y="1.67" class="d">$</text><text x="2.004" y="1.67" class="d">cat</text><text x="6.012" y="1.67" class="d">src/domain/order.py</text></symbol><symbol id="12"><text y="1.67" class="d">&quot;&quot;&quot;Order</text><text x="9.018" y="1.67" class="d">value</text><text x="15.03" y="1.67" class="d">object</text><text x="22.044" y="1.67" class="d">—</text><text x="24.048" y="1.67" class="d">pure</text><text x="29.058" y="1.67" class="d">domain,</text><text x="37.074" y="1.67" class="d">no</text><text x="40.08" y="1.67" class="d">infrastructure</text><text x="55.11" y="1.67" class="d">dependencies.&quot;&quot;&quot;</text></symbol><symbol id="13"><text y="1.67" class="d">from</text><text x="5.01" y="1.67" class="d">dataclasses</text><text x="17.034" y="1.67" class="d">import</text><text x="24.048" y="1.67" class="d">dataclass</text></symbol><symbol id="14"><text y="1.67" class="d">@dataclass(frozen=True)</text></symbol><symbol id="15"><text y="1.67" class="d">class</text><text x="6.012" y="1.67" class="d">Order:</text></symbol><symbol id="16"><text x="4.008" y="1.67" class="d">id:</text><text x="8.016" y="1.67" class="d">str</text></symbol><symbol id="17"><text x="4.008" y="1.67" class="d">customer_id:</text><text x="17.034" y="1.67" class="d">str</text></symbol><symbol id="18"><text x="4.008" y="1.67" class="d">total_cents:</text><text x="17.034" y="1.67" class="d">int</text></symbol><symbol id="19"><text x="4.008" y="1.67" class="d">def</text><text x="8.016" y="1.67" class="d">validate(self)</text><text x="23.046" y="1.67" class="d">-&gt;</text><text x="26.052" y="1.67" class="d">None:</text></symbol><symbol id="20"><text x="8.016" y="1.67" class="d">if</text><text x="11.022" y="1.67" class="d">self.total_cents</text><text x="28.056" y="1.67" class="d">&lt;</text><text x="30.06" y="1.67" class="d">0:</text></symbol><symbol id="21"><text x="12.024" y="1.67" class="d">raise</text><text x="18.036" y="1.67" class="d">ValueError(&quot;total_cents</text><text x="42.084" y="1.67" class="d">must</text><text x="47.094" y="1.67" class="d">be</text><text x="50.1" y="1.67" class="d">non-negative&quot;)</text></symbol><symbol id="22"><text y="1.67" class="e">[2/3]</text><text x="6.012" y="1.67" class="e">AI</text><text x="9.018" y="1.67" class="e">agent</text><text x="15.03" y="1.67" class="e">writes</text><text x="22.044" y="1.67" class="e">a</text><text x="24.048" y="1.67" class="e">forbidden</text><text x="34.068" y="1.67" class="e">import…</text></symbol><symbol id="23"><text y="1.67" class="d">$</text><text x="2.004" y="1.67" class="d">#</text><text x="4.008" y="1.67" class="d">Claude</text><text x="11.022" y="1.67" class="d">Code</text><text x="16.032" y="1.67" class="d">fires</text><text x="22.044" y="1.67" class="d">PreToolUse</text><text x="33.066" y="1.67" class="d">hook</text><text x="38.076" y="1.67" class="d">before</text><text x="45.09" y="1.67" class="d">applying</text><text x="54.108" y="1.67" class="d">edit</text></symbol><symbol id="24"><text x="2.004" y="1.67" class="f">[hook]</text><text x="9.018" y="1.67" class="f">scanning</text><text x="18.036" y="1.67" class="f">proposed</text><text x="27.054" y="1.67" class="f">write…</text></symbol><symbol id="25"><text y="1.67" class="d">qse-gate:</text><text x="10.02" y="1.67" class="d">blocked</text><text x="18.036" y="1.67" class="d">—</text><text x="20.04" y="1.67" class="d">this</text><text x="25.05" y="1.67" class="d">change</text><text x="32.064" y="1.67" class="d">would</text><text x="38.076" y="1.67" class="d">introduce</text><text x="48.096" y="1.67" class="d">a</text><text x="50.1" y="1.67" class="d">structural</text><text x="61.122" y="1.67" class="d">violation.</text></symbol><symbol id="26"><text x="2.004" y="1.67" class="d">[CYCLE_NEW]</text><text x="14.028" y="1.67" class="d">src.domain.order</text><text x="31.062" y="1.67" class="d">→</text><text x="33.066" y="1.67" class="d">src.infrastructure.db</text></symbol><symbol id="27"><text x="4.008" y="1.67" class="d">axiom:</text><text x="11.022" y="1.67" class="d">acyclicity</text><text x="22.044" y="1.67" class="d">(MDL:</text><text x="28.056" y="1.67" class="d">cycle</text><text x="34.068" y="1.67" class="d">increases</text><text x="44.088" y="1.67" class="d">graph</text><text x="50.1" y="1.67" class="d">description</text><text x="62.124" y="1.67" class="d">length;</text><text x="70.14" y="1.67" class="d">flow:</text><text x="76.152" y="1.67" class="d">bidirectiona</text></symbol><symbol id="28"><text y="1.67" class="d">l</text><text x="2.004" y="1.67" class="d">information</text><text x="14.028" y="1.67" class="d">transport</text><text x="24.048" y="1.67" class="d">blurs</text><text x="30.06" y="1.67" class="d">module</text><text x="37.074" y="1.67" class="d">boundaries)</text></symbol><symbol id="29"><text x="4.008" y="1.67" class="d">fix:</text><text x="11.022" y="1.67" class="d">Extract</text><text x="19.038" y="1.67" class="d">a</text><text x="21.042" y="1.67" class="d">shared</text><text x="28.056" y="1.67" class="d">interface</text><text x="38.076" y="1.67" class="d">to</text><text x="41.082" y="1.67" class="d">break</text><text x="47.094" y="1.67" class="d">the</text><text x="51.102" y="1.67" class="d">cycle,</text><text x="58.116" y="1.67" class="d">or</text><text x="61.122" y="1.67" class="d">invert</text><text x="68.136" y="1.67" class="d">one</text><text x="72.144" y="1.67" class="d">dependency</text><text x="83.166" y="1.67" class="d">via</text><text x="87.174" y="1.67" class="d">d</text></symbol><symbol id="30"><text y="1.67" class="d">ependency</text><text x="10.02" y="1.67" class="d">injection.</text></symbol><symbol id="31"><text x="2.004" y="1.67" class="d">[LAYER_VIOLATION]</text><text x="20.04" y="1.67" class="d">src.domain.order</text><text x="37.074" y="1.67" class="d">→</text><text x="39.078" y="1.67" class="d">src.infrastructure.db</text></symbol><symbol id="32"><text x="4.008" y="1.67" class="d">axiom:</text><text x="11.022" y="1.67" class="d">layering</text><text x="20.04" y="1.67" class="d">(MDL:</text><text x="26.052" y="1.67" class="d">high-level</text><text x="37.074" y="1.67" class="d">layer</text><text x="43.086" y="1.67" class="d">compressed</text><text x="54.108" y="1.67" class="d">independently</text><text x="68.136" y="1.67" class="d">of</text><text x="71.142" y="1.67" class="d">low-level;</text><text x="82.164" y="1.67" class="d">flow:</text></symbol><symbol id="33"><text y="1.67" class="d">information</text><text x="12.024" y="1.67" class="d">must</text><text x="17.034" y="1.67" class="d">not</text><text x="21.042" y="1.67" class="d">flow</text><text x="26.052" y="1.67" class="d">inward</text><text x="33.066" y="1.67" class="d">to</text><text x="36.072" y="1.67" class="d">core)</text></symbol><symbol id="34"><text x="4.008" y="1.67" class="d">fix:</text><text x="11.022" y="1.67" class="d">Define</text><text x="18.036" y="1.67" class="d">a</text><text x="20.04" y="1.67" class="d">port/interface</text><text x="35.07" y="1.67" class="d">in</text><text x="38.076" y="1.67" class="d">domain</text><text x="45.09" y="1.67" class="d">that</text><text x="50.1" y="1.67" class="d">infrastructure</text><text x="65.13" y="1.67" class="d">implements.</text><text x="77.154" y="1.67" class="d">Depend</text><text x="84.168" y="1.67" class="d">on</text><text x="87.174" y="1.67" class="d">t</text></symbol><symbol id="35"><text y="1.67" class="d">he</text><text x="3.006" y="1.67" class="d">port,</text><text x="9.018" y="1.67" class="d">not</text><text x="13.026" y="1.67" class="d">the</text><text x="17.034" y="1.67" class="d">concrete.</text></symbol><symbol id="36"><text x="2.004" y="1.67" class="g">✗</text><text x="4.008" y="1.67" class="g">write</text><text x="10.02" y="1.67" class="g">BLOCKED</text><text x="18.036" y="1.67" class="g">(exit</text><text x="24.048" y="1.67" class="g">2)</text><text x="27.054" y="1.67" class="g">—</text><text x="29.058" y="1.67" class="g">Claude</text><text x="36.072" y="1.67" class="g">sees</text><text x="41.082" y="1.67" class="g">the</text><text x="45.09" y="1.67" class="g">axiom,</text><text x="52.104" y="1.67" class="g">self-corrects</text></symbol><symbol id="37"><text y="1.67" class="e">[3/3]</text><text x="6.012" y="1.67" class="e">AI</text><text x="9.018" y="1.67" class="e">agent</text><text x="15.03" y="1.67" class="e">closes</text><text x="22.044" y="1.67" class="e">a</text><text x="24.048" y="1.67" class="e">dependency</text><text x="35.07" y="1.67" class="e">cycle…</text></symbol><symbol id="38"><text y="1.67" class="d">$</text><text x="2.004" y="1.67" class="d">#</text><text x="4.008" y="1.67" class="d">domain.order</text><text x="17.034" y="1.67" class="d">imports</text><text x="25.05" y="1.67" class="d">application.order_service</text><text x="51.102" y="1.67" class="d">→</text><text x="53.106" y="1.67" class="d">cycle</text><text x="59.118" y="1.67" class="d">closes</text></symbol><symbol id="39"><text x="2.004" y="1.67" class="f">[hook]</text><text x="9.018" y="1.67" class="f">scanning</text><text x="18.036" y="1.67" class="f">proposed</text><text x="27.054" y="1.67" class="f">edit…</text></symbol><symbol id="40"><text x="2.004" y="1.67" class="d">[CYCLE_NEW]</text><text x="14.028" y="1.67" class="d">src.application.order_service</text><text x="44.088" y="1.67" class="d">→</text><text x="46.092" y="1.67" class="d">src.domain.order</text></symbol><symbol id="41"><text x="2.004" y="1.67" class="d">[LAYER_VIOLATION]</text><text x="20.04" y="1.67" class="d">src.domain.order</text><text x="37.074" y="1.67" class="d">→</text><text x="39.078" y="1.67" class="d">src.application.order_service</text></symbol><symbol id="42"><text x="4.008" y="1.67" class="d">fix:</text><text x="11.022" y="1.67" class="d">Define</text><text x="18.036" y="1.67" class="d">a</text><text x="20.04" y="1.67" class="d">port/interface</text><text x="35.07" y="1.67" class="d">in</text><text x="38.076" y="1.67" class="d">domain</text><text x="45.09" y="1.67" class="d">that</text><text x="50.1" y="1.67" class="d">application</text><text x="62.124" y="1.67" class="d">implements.</text><text x="74.148" y="1.67" class="d">Depend</text><text x="81.162" y="1.67" class="d">on</text><text x="84.168" y="1.67" class="d">the</text></symbol><symbol id="43"><text y="1.67" class="d">port,</text><text x="6.012" y="1.67" class="d">not</text><text x="10.02" y="1.67" class="d">the</text><text x="14.028" y="1.67" class="d">concrete.</text></symbol><symbol id="44"><text x="2.004" y="1.67" class="g">✗</text><text x="4.008" y="1.67" class="g">write</text><text x="10.02" y="1.67" class="g">BLOCKED</text><text x="18.036" y="1.67" class="g">—</text><text x="20.04" y="1.67" class="g">cycle</text><text x="26.052" y="1.67" class="g">detected,</text><text x="36.072" y="1.67" class="g">axiom</text><text x="42.084" y="1.67" class="g">cited</text></symbol><symbol id="45"><text y="1.67" class="e">Clean</text><text x="6.012" y="1.67" class="e">write</text><text x="12.024" y="1.67" class="e">—</text><text x="14.028" y="1.67" class="e">no</text><text x="17.034" y="1.67" class="e">violations,</text><text x="29.058" y="1.67" class="e">gate</text><text x="34.068" y="1.67" class="e">silent</text></symbol><symbol id="46"><text x="2.004" y="1.67" class="h">✓</text><text x="4.008" y="1.67" class="h">ALLOWED</text><text x="12.024" y="1.67" class="h">—</text><text x="14.028" y="1.67" class="h">no</text><text x="17.034" y="1.67" class="h">output,</text><text x="25.05" y="1.67" class="h">no</text><text x="28.056" y="1.67" class="h">delay</text></symbol><symbol id="47"><text y="1.67" class="c">━━━━━━━━━━━━━━━━━━━━━━━━━━━━━━━━━━━━━━━━━━━━━━</text></symbol><symbol id="48"><text x="2.004" y="1.67" class="e">Verdict</text></symbol><symbol id="49"><text x="2.004" y="1.67" class="d">LAYER_VIOLATION</text><text x="18.036" y="1.67" class="d">(domain→infra)</text><text x="34.068" y="1.67" class="i">BLOCKED</text></symbol><symbol id="50"><text x="2.004" y="1.67" class="d">CYCLE_NEW</text><text x="12.024" y="1.67" class="d">(domain↔application)</text><text x="34.068" y="1.67" class="i">BLOCKED</text></symbol><symbol id="51"><text x="2.004" y="1.67" class="d">Clean</text><text x="8.016" y="1.67" class="d">write</text><text x="35.07" y="1.67" style="white-space:pre" fill="#a8cc8c">ALLOWED</text></symbol><symbol id="a"><path fill="transparent" d="M0 0h88v33H0z"/></symbol><symbol id="b"><path fill="#6f7683" d="M0 0h1.102v2.171H0z"/></symbol></defs><path class="a" d="M0 0h88v69.472H0z"/><g style="animation-duration:19.828399s;animation-iteration-count:infinite;animation-name:m;animation-timing-function:steps(1,end)"><svg width="5720"><svg><use xlink:href="#a"/><use xlink:href="#b" x="-.004"/></svg><svg x="88"><use xlink:href="#a"/><use xlink:href="#b" x="-.004"/></svg><svg x="176"><use xlink:href="#a"/><use xlink:href="#b" x="-.004"/></svg><svg x="264"><use xlink:href="#a"/><use xlink:href="#b" x=".996"/></svg><svg x="352"><use xlink:href="#a"/><use xlink:href="#b" x="1.996"/></svg><svg x="440"><use xlink:href="#a"/><use xlink:href="#b" x="2.996"/><text x="2.004" y="1.67" class="c">A</text></svg><svg x="528"><use xlink:href="#a"/><use xlink:href="#b" x="3.996"/><text x="2.004" y="1.67" class="c">AI</text></svg><svg x="616"><use xlink:href="#a"/><use xlink:href="#b" x="4.996"/><text x="2.004" y="1.67" class="c">AI-</text></svg><svg x="704"><use xlink:href="#a"/><use xlink:href="#b" x="5.996"/><text x="2.004" y="1.67" class="c">AI-D</text></svg><svg x="792"><use xlink:href="#a"/><use xlink:href="#b" x="6.996"/><text x="2.004" y="1.67" class="c">AI-Dr</text></svg><svg x="880"><use xlink:href="#a"/><use xlink:href="#b" x="7.996"/><text x="2.004" y="1.67" class="c">AI-Dri</text></svg><svg x="968"><use xlink:href="#a"/><use xlink:href="#b" x="8.996"/><text x="2.004" y="1.67" class="c">AI-Drif</text></svg><svg x="1056"><use xlink:href="#a"/><use xlink:href="#b" x="9.996"/><use xlink:href="#1"/></svg><svg x="1144"><use xlink:href="#a"/><use xlink:href="#b" x="10.996"/><use xlink:href="#1"/></svg><svg x="1232"><use xlink:href="#a"/><use xlink:href="#b" x="11.996"/><text x="2.004" y="1.67" class="c">AI-Drift</text><text x="11.022" y="1.67" class="c">F</text></svg><svg x="1320"><use xlink:href="#a"/><use xlink:href="#b" x="12.996"/><text x="2.004" y="1.67" class="c">AI-Drift</text><text x="11.022" y="1.67" class="c">Fi</text></svg><svg x="1408"><use xlink:href="#a"/><use xlink:href="#b" x="13.996"/><text x="2.004" y="1.67" class="c">AI-Drift</text><text x="11.022" y="1.67" class="c">Fir</text></svg><svg x="1496"><use xlink:href="#a"/><use xlink:href="#b" x="14.996"/><text x="2.004" y="1.67" class="c">AI-Drift</text><text x="11.022" y="1.67" class="c">Fire</text></svg><svg x="1584"><use xlink:href="#a"/><use xlink:href="#b" x="15.996"/><text x="2.004" y="1.67" class="c">AI-Drift</text><text x="11.022" y="1.67" class="c">Firew</text></svg><svg x="1672"><use xlink:href="#a"/><use xlink:href="#b" x="16.996"/><text x="2.004" y="1.67" class="c">AI-Drift</text><text x="11.022" y="1.67" class="c">Firewa</text></svg><svg x="1760"><use xlink:href="#a"/><use xlink:href="#b" x="17.996"/><text x="2.004" y="1.67" class="c">AI-Drift</text><text x="11.022" y="1.67" class="c">Firewal</text></svg><svg x="1848"><use xlink:href="#a"/><use xlink:href="#b" x="18.996"/><use xlink:href="#2"/></svg><svg x="1936"><use xlink:href="#a"/><use xlink:href="#b" x="19.996"/><use xlink:href="#2"/></svg><svg x="2024"><use xlink:href="#a"/><use xlink:href="#b" x="20.996"/><use xlink:href="#3"/></svg><svg x="2112"><use xlink:href="#a"/><use xlink:href="#b" x="21.996"/><use xlink:href="#3"/></svg><svg x="2200"><use xlink:href="#a"/><use xlink:href="#b" x="22.996"/><text x="2.004" y="1.67" class="c">AI-Drift</text><text x="11.022" y="1.67" class="c">Firewall</text><text x="20.04" y="1.67" class="c">—</text><text x="22.044" y="1.67" class="c">A</text></svg><svg x="2288"><use xlink:href="#a"/><use xlink:href="#b" x="23.996"/><text x="2.004" y="1.67" class="c">AI-Drift</text><text x="11.022" y="1.67" class="c">Firewall</text><text x="20.04" y="1.67" class="c">—</text><text x="22.044" y="1.67" class="c">Ag</text></svg><svg x="2376"><use xlink:href="#a"/><use xlink:href="#b" x="24.996"/><text x="2.004" y="1.67" class="c">AI-Drift</text><text x="11.022" y="1.67" class="c">Firewall</text><text x="20.04" y="1.67" class="c">—</text><text x="22.044" y="1.67" class="c">Age</text></svg><svg x="2464"><use xlink:href="#a"/><use xlink:href="#b" x="25.996"/><text x="2.004" y="1.67" class="c">AI-Drift</text><text x="11.022" y="1.67" class="c">Firewall</text><text x="20.04" y="1.67" class="c">—</text><text x="22.044" y="1.67" class="c">Agen</text></svg><svg x="2552"><use xlink:href="#a"/><use xlink:href="#b" x="26.996"/><text x="2.004" y="1.67" class="c">AI-Drift</text><text x="11.022" y="1.67" class="c">Firewall</text><text x="20.04" y="1.67" class="c">—</text><text x="22.044" y="1.67" class="c">Agent</text></svg><svg x="2640"><use xlink:href="#a"/><use xlink:href="#b" x="27.996"/><text x="2.004" y="1.67" class="c">AI-Drift</text><text x="11.022" y="1.67" class="c">Firewall</text><text x="20.04" y="1.67" class="c">—</text><text x="22.044" y="1.67" class="c">Agent-</text></svg><svg x="2728"><use xlink:href="#a"/><use xlink:href="#b" x="28.996"/><text x="2.004" y="1.67" class="c">AI-Drift</text><text x="11.022" y="1.67" class="c">Firewall</text><text x="20.04" y="1.67" class="c">—</text><text x="22.044" y="1.67" class="c">Agent-T</text></svg><svg x="2816"><use xlink:href="#a"/><use xlink:href="#b" x="29.996"/><text x="2.004" y="1.67" class="c">AI-Drift</text><text x="11.022" y="1.67" class="c">Firewall</text><text x="20.04" y="1.67" class="c">—</text><text x="22.044" y="1.67" class="c">Agent-Ti</text></svg><svg x="2904"><use xlink:href="#a"/><use xlink:href="#b" x="30.996"/><text x="2.004" y="1.67" class="c">AI-Drift</text><text x="11.022" y="1.67" class="c">Firewall</text><text x="20.04" y="1.67" class="c">—</text><text x="22.044" y="1.67" class="c">Agent-Tim</text></svg><svg x="2992"><use xlink:href="#a"/><use xlink:href="#b" x="31.996"/><use xlink:href="#4"/></svg><svg x="3080"><use xlink:href="#a"/><use xlink:href="#b" x="32.996"/><use xlink:href="#4"/></svg><svg x="3168"><use xlink:href="#a"/><use xlink:href="#b" x="33.996"/><text x="2.004" y="1.67" class="c">AI-Drift</text><text x="11.022" y="1.67" class="c">Firewall</text><text x="20.04" y="1.67" class="c">—</text><text x="22.044" y="1.67" class="c">Agent-Time</text><text x="33.066" y="1.67" class="c">G</text></svg><svg x="3256"><use xlink:href="#a"/><use xlink:href="#b" x="34.996"/><text x="2.004" y="1.67" class="c">AI-Drift</text><text x="11.022" y="1.67" class="c">Firewall</text><text x="20.04" y="1.67" class="c">—</text><text x="22.044" y="1.67" class="c">Agent-Time</text><text x="33.066" y="1.67" class="c">Ga</text></svg><svg x="3344"><use xlink:href="#a"/><use xlink:href="#b" x="35.996"/><text x="2.004" y="1.67" class="c">AI-Drift</text><text x="11.022" y="1.67" class="c">Firewall</text><text x="20.04" y="1.67" class="c">—</text><text x="22.044" y="1.67" class="c">Agent-Time</text><text x="33.066" y="1.67" class="c">Gat</text></svg><svg x="3432"><use xlink:href="#a"/><use xlink:href="#b" x="36.996"/><use xlink:href="#5"/></svg><svg x="3520"><use xlink:href="#a"/><use xlink:href="#b" x="37.996"/><use xlink:href="#5"/></svg><svg x="3608"><use xlink:href="#a"/><use xlink:href="#b" x="38.996"/><text x="2.004" y="1.67" class="c">AI-Drift</text><text x="11.022" y="1.67" class="c">Firewall</text><text x="20.04" y="1.67" class="c">—</text><text x="22.044" y="1.67" class="c">Agent-Time</text><text x="33.066" y="1.67" class="c">Gate</text><text x="38.076" y="1.67" class="c">D</text></svg><svg x="3696"><use xlink:href="#a"/><use xlink:href="#b" x="39.996"/><text x="2.004" y="1.67" class="c">AI-Drift</text><text x="11.022" y="1.67" class="c">Firewall</text><text x="20.04" y="1.67" class="c">—</text><text x="22.044" y="1.67" class="c">Agent-Time</text><text x="33.066" y="1.67" class="c">Gate</text><text x="38.076" y="1.67" class="c">De</text></svg><svg x="3784"><use xlink:href="#a"/><use xlink:href="#b" x="40.996"/><text x="2.004" y="1.67" class="c">AI-Drift</text><text x="11.022" y="1.67" class="c">Firewall</text><text x="20.04" y="1.67" class="c">—</text><text x="22.044" y="1.67" class="c">Agent-Time</text><text x="33.066" y="1.67" class="c">Gate</text><text x="38.076" y="1.67" class="c">Dem</text></svg><svg x="3872"><use xlink:href="#a"/><use xlink:href="#b" x="41.996"/><use xlink:href="#6"/></svg><svg x="3960"><use xlink:href="#a"/><use xlink:href="#b" x="-.004" y="4.317"/><use xlink:href="#6"/><use xlink:href="#7" y="2.171"/></svg><svg x="4048"><use xlink:href="#a"/><use xlink:href="#b" x="-.004" y="10.83"/><use xlink:href="#6"/><use xlink:href="#7" y="2.171"/><use xlink:href="#8" y="6.513"/><use xlink:href="#9" y="8.684"/></svg><svg x="4136"><use xlink:href="#a"/><use xlink:href="#b" x="-.004" y="15.172"/><use xlink:href="#6"/><use xlink:href="#7" y="2.171"/><use xlink:href="#8" y="6.513"/><use xlink:href="#9" y="8.684"/><use xlink:href="#10" y="13.026"/></svg><svg x="4224"><use xlink:href="#a"/><use xlink:href="#b" x="-.004" y="17.343"/><use xlink:href="#6"/><use xlink:href="#7" y="2.171"/><use xlink:href="#8" y="6.513"/><use xlink:href="#9" y="8.684"/><use xlink:href="#10" y="13.026"/><use xlink:href="#11" y="15.197"/></svg><svg x="4312"><use xlink:href="#a"/><use xlink:href="#b" x="-.004" y="47.737"/><use xlink:href="#6"/><use xlink:href="#7" y="2.171"/><use xlink:href="#8" y="6.513"/><use xlink:href="#9" y="8.684"/><use xlink:href="#10" y="13.026"/><use xlink:href="#11" y="15.197"/><use xlink:href="#12" y="17.368"/><use xlink:href="#13" y="21.71"/><use xlink:href="#14" y="28.223"/><use xlink:href="#15" y="30.394"/><use xlink:href="#16" y="32.565"/><use xlink:href="#17" y="34.736"/><use xlink:href="#18" y="36.907"/><use xlink:href="#19" y="41.249"/><use xlink:href="#20" y="43.42"/><use xlink:href="#21" y="45.591"/></svg><svg x="4400"><use xlink:href="#a"/><use xlink:href="#b" x="-.004" y="52.079"/><use xlink:href="#6"/><use xlink:href="#7" y="2.171"/><use xlink:href="#8" y="6.513"/><use xlink:href="#9" y="8.684"/><use xlink:href="#10" y="13.026"/><use xlink:href="#11" y="15.197"/><use xlink:href="#12" y="17.368"/><use xlink:href="#13" y="21.71"/><use xlink:href="#14" y="28.223"/><use xlink:href="#15" y="30.394"/><use xlink:href="#16" y="32.565"/><use xlink:href="#17" y="34.736"/><use xlink:href="#18" y="36.907"/><use xlink:href="#19" y="41.249"/><use xlink:href="#20" y="43.42"/><use xlink:href="#21" y="45.591"/><use xlink:href="#22" y="49.933"/></svg><svg x="4488"><use xlink:href="#a"/><use xlink:href="#b" x="-.004" y="54.25"/><use xlink:href="#6"/><use xlink:href="#7" y="2.171"/><use xlink:href="#8" y="6.513"/><use xlink:href="#9" y="8.684"/><use xlink:href="#10" y="13.026"/><use xlink:href="#11" y="15.197"/><use xlink:href="#12" y="17.368"/><use xlink:href="#13" y="21.71"/><use xlink:href="#14" y="28.223"/><use xlink:href="#15" y="30.394"/><use xlink:href="#16" y="32.565"/><use xlink:href="#17" y="34.736"/><use xlink:href="#18" y="36.907"/><use xlink:href="#19" y="41.249"/><use xlink:href="#20" y="43.42"/><use xlink:href="#21" y="45.591"/><use xlink:href="#22" y="49.933"/><use xlink:href="#23" y="52.104"/></svg><svg x="4576"><use xlink:href="#a"/><use xlink:href="#b" x="-.004" y="56.421"/><use xlink:href="#6"/><use xlink:href="#7" y="2.171"/><use xlink:href="#8" y="6.513"/><use xlink:href="#9" y="8.684"/><use xlink:href="#10" y="13.026"/><use xlink:href="#11" y="15.197"/><use xlink:href="#12" y="17.368"/><use xlink:href="#13" y="21.71"/><use xlink:href="#14" y="28.223"/><use xlink:href="#15" y="30.394"/><use xlink:href="#16" y="32.565"/><use xlink:href="#17" y="34.736"/><use xlink:href="#18" y="36.907"/><use xlink:href="#19" y="41.249"/><use xlink:href="#20" y="43.42"/><use xlink:href="#21" y="45.591"/><use xlink:href="#22" y="49.933"/><use xlink:href="#23" y="52.104"/><use xlink:href="#24" y="54.275"/></svg><svg x="4664"><use xlink:href="#a"/><use xlink:href="#b" x="-.004" y="69.447"/><use xlink:href="#10"/><use xlink:href="#11" y="2.171"/><use xlink:href="#12" y="4.342"/><use xlink:href="#13" y="8.684"/><use xlink:href="#14" y="15.197"/><use xlink:href="#15" y="17.368"/><use xlink:href="#16" y="19.539"/><use xlink:href="#17" y="21.71"/><use xlink:href="#18" y="23.881"/><use xlink:href="#19" y="28.223"/><use xlink:href="#20" y="30.394"/><use xlink:href="#21" y="32.565"/><use xlink:href="#22" y="36.907"/><use xlink:href="#23" y="39.078"/><use xlink:href="#24" y="41.249"/><use xlink:href="#25" y="43.42"/><use xlink:href="#26" y="47.762"/><use xlink:href="#27" y="49.933"/><use xlink:href="#28" y="52.104"/><use xlink:href="#29" y="54.275"/><use xlink:href="#30" y="56.446"/><use xlink:href="#31" y="58.617"/><use xlink:href="#32" y="60.788"/><use xlink:href="#33" y="62.959"/><use xlink:href="#34" y="65.13"/><use xlink:href="#35" y="67.301"/></svg><svg x="4752"><use xlink:href="#a"/><use xlink:href="#b" x="-.004" y="69.447"/><use xlink:href="#12"/><use xlink:href="#13" y="4.342"/><use xlink:href="#14" y="10.855"/><use xlink:href="#15" y="13.026"/><use xlink:href="#16" y="15.197"/><use xlink:href="#17" y="17.368"/><use xlink:href="#18" y="19.539"/><use xlink:href="#19" y="23.881"/><use xlink:href="#20" y="26.052"/><use xlink:href="#21" y="28.223"/><use xlink:href="#22" y="32.565"/><use xlink:href="#23" y="34.736"/><use xlink:href="#24" y="36.907"/><use xlink:href="#25" y="39.078"/><use xlink:href="#26" y="43.42"/><use xlink:href="#27" y="45.591"/><use xlink:href="#28" y="47.762"/><use xlink:href="#29" y="49.933"/><use xlink:href="#30" y="52.104"/><use xlink:href="#31" y="54.275"/><use xlink:href="#32" y="56.446"/><use xlink:href="#33" y="58.617"/><use xlink:href="#34" y="60.788"/><use xlink:href="#35" y="62.959"/><use xlink:href="#36" y="67.301"/></svg><svg x="4840"><use xlink:href="#a"/><use xlink:href="#b" x="-.004" y="69.447"/><use xlink:href="#13"/><use xlink:href="#14" y="6.513"/><use xlink:href="#15" y="8.684"/><use xlink:href="#16" y="10.855"/><use xlink:href="#17" y="13.026"/><use xlink:href="#18" y="15.197"/><use xlink:href="#19" y="19.539"/><use xlink:href="#20" y="21.71"/><use xlink:href="#21" y="23.881"/><use xlink:href="#22" y="28.223"/><use xlink:href="#23" y="30.394"/><use xlink:href="#24" y="32.565"/><use xlink:href="#25" y="34.736"/><use xlink:href="#26" y="39.078"/><use xlink:href="#27" y="41.249"/><use xlink:href="#28" y="43.42"/><use xlink:href="#29" y="45.591"/><use xlink:href="#30" y="47.762"/><use xlink:href="#31" y="49.933"/><use xlink:href="#32" y="52.104"/><use xlink:href="#33" y="54.275"/><use xlink:href="#34" y="56.446"/><use xlink:href="#35" y="58.617"/><use xlink:href="#36" y="62.959"/><use xlink:href="#37" y="67.301"/></svg><svg x="4928"><use xlink:href="#a"/><use xlink:href="#b" x="-.004" y="69.447"/><use xlink:href="#14" y="4.342"/><use xlink:href="#15" y="6.513"/><use xlink:href="#16" y="8.684"/><use xlink:href="#17" y="10.855"/><use xlink:href="#18" y="13.026"/><use xlink:href="#19" y="17.368"/><use xlink:href="#20" y="19.539"/><use xlink:href="#21" y="21.71"/><use xlink:href="#22" y="26.052"/><use xlink:href="#23" y="28.223"/><use xlink:href="#24" y="30.394"/><use xlink:href="#25" y="32.565"/><use xlink:href="#26" y="36.907"/><use xlink:href="#27" y="39.078"/><use xlink:href="#28" y="41.249"/><use xlink:href="#29" y="43.42"/><use xlink:href="#30" y="45.591"/><use xlink:href="#31" y="47.762"/><use xlink:href="#32" y="49.933"/><use xlink:href="#33" y="52.104"/><use xlink:href="#34" y="54.275"/><use xlink:href="#35" y="56.446"/><use xlink:href="#36" y="60.788"/><use xlink:href="#37" y="65.13"/><use xlink:href="#38" y="67.301"/></svg><svg x="5016"><use xlink:href="#a"/><use xlink:href="#b" x="-.004" y="69.447"/><use xlink:href="#14" y="2.171"/><use xlink:href="#15" y="4.342"/><use xlink:href="#16" y="6.513"/><use xlink:href="#17" y="8.684"/><use xlink:href="#18" y="10.855"/><use xlink:href="#19" y="15.197"/><use xlink:href="#20" y="17.368"/><use xlink:href="#21" y="19.539"/><use xlink:href="#22" y="23.881"/><use xlink:href="#23" y="26.052"/><use xlink:href="#24" y="28.223"/><use xlink:href="#25" y="30.394"/><use xlink:href="#26" y="34.736"/><use xlink:href="#27" y="36.907"/><use xlink:href="#28" y="39.078"/><use xlink:href="#29" y="41.249"/><use xlink:href="#30" y="43.42"/><use xlink:href="#31" y="45.591"/><use xlink:href="#32" y="47.762"/><use xlink:href="#33" y="49.933"/><use xlink:href="#34" y="52.104"/><use xlink:href="#35" y="54.275"/><use xlink:href="#36" y="58.617"/><use xlink:href="#37" y="62.959"/><use xlink:href="#38" y="65.13"/><use xlink:href="#39" y="67.301"/></svg><svg x="5104"><use xlink:href="#a"/><use xlink:href="#b" x="-.004" y="69.447"/><use xlink:href="#23"/><use xlink:href="#24" y="2.171"/><use xlink:href="#25" y="4.342"/><use xlink:href="#26" y="8.684"/><use xlink:href="#27" y="10.855"/><use xlink:href="#28" y="13.026"/><use xlink:href="#29" y="15.197"/><use xlink:href="#30" y="17.368"/><use xlink:href="#31" y="19.539"/><use xlink:href="#32" y="21.71"/><use xlink:href="#33" y="23.881"/><use xlink:href="#34" y="26.052"/><use xlink:href="#35" y="28.223"/><use xlink:href="#36" y="32.565"/><use xlink:href="#37" y="36.907"/><use xlink:href="#38" y="39.078"/><use xlink:href="#39" y="41.249"/><use xlink:href="#25" y="43.42"/><use xlink:href="#40" y="47.762"/><use xlink:href="#27" y="49.933"/><use xlink:href="#28" y="52.104"/><use xlink:href="#29" y="54.275"/><use xlink:href="#30" y="56.446"/><use xlink:href="#41" y="58.617"/><use xlink:href="#32" y="60.788"/><use xlink:href="#33" y="62.959"/><use xlink:href="#42" y="65.13"/><use xlink:href="#43" y="67.301"/></svg><svg x="5192"><use xlink:href="#a"/><use xlink:href="#b" x="-.004" y="69.447"/><use xlink:href="#25"/><use xlink:href="#26" y="4.342"/><use xlink:href="#27" y="6.513"/><use xlink:href="#28" y="8.684"/><use xlink:href="#29" y="10.855"/><use xlink:href="#30" y="13.026"/><use xlink:href="#31" y="15.197"/><use xlink:href="#32" y="17.368"/><use xlink:href="#33" y="19.539"/><use xlink:href="#34" y="21.71"/><use xlink:href="#35" y="23.881"/><use xlink:href="#36" y="28.223"/><use xlink:href="#37" y="32.565"/><use xlink:href="#38" y="34.736"/><use xlink:href="#39" y="36.907"/><use xlink:href="#25" y="39.078"/><use xlink:href="#40" y="43.42"/><use xlink:href="#27" y="45.591"/><use xlink:href="#28" y="47.762"/><use xlink:href="#29" y="49.933"/><use xlink:href="#30" y="52.104"/><use xlink:href="#41" y="54.275"/><use xlink:href="#32" y="56.446"/><use xlink:href="#33" y="58.617"/><use xlink:href="#42" y="60.788"/><use xlink:href="#43" y="62.959"/><use xlink:href="#44" y="67.301"/></svg><svg x="5280"><use xlink:href="#a"/><use xlink:href="#b" x="-.004" y="69.447"/><use xlink:href="#26"/><use xlink:href="#27" y="2.171"/><use xlink:href="#28" y="4.342"/><use xlink:href="#29" y="6.513"/><use xlink:href="#30" y="8.684"/><use xlink:href="#31" y="10.855"/><use xlink:href="#32" y="13.026"/><use xlink:href="#33" y="15.197"/><use xlink:href="#34" y="17.368"/><use xlink:href="#35" y="19.539"/><use xlink:href="#36" y="23.881"/><use xlink:href="#37" y="28.223"/><use xlink:href="#38" y="30.394"/><use xlink:href="#39" y="32.565"/><use xlink:href="#25" y="34.736"/><use xlink:href="#40" y="39.078"/><use xlink:href="#27" y="41.249"/><use xlink:href="#28" y="43.42"/><use xlink:href="#29" y="45.591"/><use xlink:href="#30" y="47.762"/><use xlink:href="#41" y="49.933"/><use xlink:href="#32" y="52.104"/><use xlink:href="#33" y="54.275"/><use xlink:href="#42" y="56.446"/><use xlink:href="#43" y="58.617"/><use xlink:href="#44" y="62.959"/><use xlink:href="#45" y="67.301"/></svg><svg x="5368"><use xlink:href="#a"/><use xlink:href="#b" x="-.004" y="69.447"/><use xlink:href="#27"/><use xlink:href="#28" y="2.171"/><use xlink:href="#29" y="4.342"/><use xlink:href="#30" y="6.513"/><use xlink:href="#31" y="8.684"/><use xlink:href="#32" y="10.855"/><use xlink:href="#33" y="13.026"/><use xlink:href="#34" y="15.197"/><use xlink:href="#35" y="17.368"/><use xlink:href="#36" y="21.71"/><use xlink:href="#37" y="26.052"/><use xlink:href="#38" y="28.223"/><use xlink:href="#39" y="30.394"/><use xlink:href="#25" y="32.565"/><use xlink:href="#40" y="36.907"/><use xlink:href="#27" y="39.078"/><use xlink:href="#28" y="41.249"/><use xlink:href="#29" y="43.42"/><use xlink:href="#30" y="45.591"/><use xlink:href="#41" y="47.762"/><use xlink:href="#32" y="49.933"/><use xlink:href="#33" y="52.104"/><use xlink:href="#42" y="54.275"/><use xlink:href="#43" y="56.446"/><use xlink:href="#44" y="60.788"/><use xlink:href="#45" y="65.13"/><use xlink:href="#24" y="67.301"/></svg><svg x="5456"><use xlink:href="#a"/><use xlink:href="#b" x="-.004" y="69.447"/><use xlink:href="#28"/><use xlink:href="#29" y="2.171"/><use xlink:href="#30" y="4.342"/><use xlink:href="#31" y="6.513"/><use xlink:href="#32" y="8.684"/><use xlink:href="#33" y="10.855"/><use xlink:href="#34" y="13.026"/><use xlink:href="#35" y="15.197"/><use xlink:href="#36" y="19.539"/><use xlink:href="#37" y="23.881"/><use xlink:href="#38" y="26.052"/><use xlink:href="#39" y="28.223"/><use xlink:href="#25" y="30.394"/><use xlink:href="#40" y="34.736"/><use xlink:href="#27" y="36.907"/><use xlink:href="#28" y="39.078"/><use xlink:href="#29" y="41.249"/><use xlink:href="#30" y="43.42"/><use xlink:href="#41" y="45.591"/><use xlink:href="#32" y="47.762"/><use xlink:href="#33" y="49.933"/><use xlink:href="#42" y="52.104"/><use xlink:href="#43" y="54.275"/><use xlink:href="#44" y="58.617"/><use xlink:href="#45" y="62.959"/><use xlink:href="#24" y="65.13"/><use xlink:href="#46" y="67.301"/></svg><svg x="5544"><use xlink:href="#a"/><use xlink:href="#b" x="-.004" y="69.447"/><use xlink:href="#34"/><use xlink:href="#35" y="2.171"/><use xlink:href="#36" y="6.513"/><use xlink:href="#37" y="10.855"/><use xlink:href="#38" y="13.026"/><use xlink:href="#39" y="15.197"/><use xlink:href="#25" y="17.368"/><use xlink:href="#40" y="21.71"/><use xlink:href="#27" y="23.881"/><use xlink:href="#28" y="26.052"/><use xlink:href="#29" y="28.223"/><use xlink:href="#30" y="30.394"/><use xlink:href="#41" y="32.565"/><use xlink:href="#32" y="34.736"/><use xlink:href="#33" y="36.907"/><use xlink:href="#42" y="39.078"/><use xlink:href="#43" y="41.249"/><use xlink:href="#44" y="45.591"/><use xlink:href="#45" y="49.933"/><use xlink:href="#24" y="52.104"/><use xlink:href="#46" y="54.275"/><use xlink:href="#47" y="58.617"/><use xlink:href="#48" y="60.788"/><use xlink:href="#49" y="62.959"/><use xlink:href="#50" y="65.13"/><use xlink:href="#51" y="67.301"/></svg><svg x="5632"><use xlink:href="#a"/><use xlink:href="#b" x="-.004" y="69.447"/><use xlink:href="#36" y="2.171"/><use xlink:href="#37" y="6.513"/><use xlink:href="#38" y="8.684"/><use xlink:href="#39" y="10.855"/><use xlink:href="#25" y="13.026"/><use xlink:href="#40" y="17.368"/><use xlink:href="#27" y="19.539"/><use xlink:href="#28" y="21.71"/><use xlink:href="#29" y="23.881"/><use xlink:href="#30" y="26.052"/><use xlink:href="#41" y="28.223"/><use xlink:href="#32" y="30.394"/><use xlink:href="#33" y="32.565"/><use xlink:href="#42" y="34.736"/><use xlink:href="#43" y="36.907"/><use xlink:href="#44" y="41.249"/><use xlink:href="#45" y="45.591"/><use xlink:href="#24" y="47.762"/><use xlink:href="#46" y="49.933"/><use xlink:href="#47" y="54.275"/><use xlink:href="#48" y="56.446"/><use xlink:href="#49" y="58.617"/><use xlink:href="#50" y="60.788"/><use xlink:href="#51" y="62.959"/><text x="2.004" y="66.8" class="d">Latency:</text><text x="11.022" y="66.8" class="d">~350ms</text><text x="18.036" y="66.8" class="d">cold</text><text x="23.046" y="66.8" class="d">·</text><text x="25.05" y="66.8" class="d">axiom-cited</text><text x="37.074" y="66.8" class="d">·</text><text x="39.078" y="66.8" class="d">self-correctable</text><use xlink:href="#47" y="67.301"/></svg></svg></g></g></svg></svg>